<svg width="276" height="25" viewBox="0 0 276 25" fill="none" xmlns="http://www.w3.org/2000/svg">
<path d="M1 12.4615V12.4615C14.9349 19.8737 31.1712 21.6956 46.4024 17.5561L72.3102 10.515C83.2194 7.55014 94.6886 7.30188 105.716 9.7919L117.538 12.4615" stroke="black" stroke-width="0.461538"/>
<path d="M275.539 12.4615V12.4615C261.604 19.8737 245.367 21.6956 230.136 17.5561L204.228 10.515C193.319 7.55014 181.85 7.30188 170.823 9.7919L159 12.4615" stroke="black" stroke-width="0.461538"/>
<path d="M137.584 11.2002L137.603 11.5625L137.953 11.6572L141.08 12.5L137.953 13.3428L137.603 13.4375L137.584 13.7998L137.5 15.4092L137.416 13.7998L137.397 13.4375L137.047 13.3428L133.919 12.5L137.047 11.6572L137.397 11.5625L137.416 11.2002L137.5 9.58984L137.584 11.2002Z" stroke="black"/>
</svg>
