<svg width="250" height="250" viewBox="0 0 250 250" fill="none" xmlns="http://www.w3.org/2000/svg">
<path d="M125 20.8335C67.5002 20.8335 20.8335 67.5002 20.8335 125C20.8335 182.5 67.5002 229.167 125 229.167C182.5 229.167 229.167 182.5 229.167 125C229.167 67.5002 182.5 20.8335 125 20.8335ZM173.333 91.6668C171.771 108.125 165 148.125 161.563 166.563C160.104 174.375 157.188 176.979 154.479 177.292C148.438 177.813 143.854 173.333 138.021 169.479C128.854 163.438 123.646 159.688 114.792 153.854C104.479 147.083 111.146 143.333 117.083 137.292C118.646 135.729 145.313 111.458 145.833 109.271C145.906 108.94 145.896 108.596 145.805 108.269C145.715 107.942 145.546 107.643 145.313 107.396C144.688 106.875 143.854 107.083 143.125 107.188C142.188 107.396 127.604 117.083 99.1668 136.25C95.0002 139.063 91.2502 140.521 87.9168 140.417C84.1668 140.313 77.0835 138.333 71.771 136.563C65.2085 134.479 60.1043 133.333 60.521 129.688C60.7293 127.813 63.3335 125.938 68.2293 123.958C98.646 110.729 118.854 101.979 128.958 97.8127C157.917 85.7293 163.854 83.646 167.813 83.646C168.646 83.646 170.625 83.8543 171.875 84.896C172.917 85.7293 173.229 86.8752 173.333 87.7085C173.229 88.3335 173.438 90.2085 173.333 91.6668Z" fill="#00C5F1"/>
</svg>
