<svg width="259" height="259" viewBox="0 0 259 259" fill="none" xmlns="http://www.w3.org/2000/svg">
<path fill-rule="evenodd" clip-rule="evenodd" d="M179.962 28.3606C146.01 20.7711 110.8 20.7711 76.8477 28.3606L73.1893 29.17C63.6362 31.2995 54.8617 36.0386 47.8425 42.8597C40.8233 49.6807 35.8349 58.316 33.4328 67.8042C24.8414 101.719 24.8414 137.241 33.4328 171.156C35.7239 180.205 40.3694 188.486 46.8973 195.158C53.4251 201.829 61.6028 206.655 70.5993 209.143L75.6174 239.1C75.7776 240.052 76.1899 240.943 76.8113 241.68C77.4328 242.418 78.2407 242.976 79.1509 243.295C80.0611 243.615 81.0403 243.685 81.9866 243.497C82.9329 243.31 83.8116 242.872 84.5313 242.23L114.003 215.866C136.127 217.201 158.329 215.432 179.962 210.61L183.631 209.801C193.184 207.671 201.959 202.932 208.978 196.111C215.997 189.29 220.986 180.655 223.388 171.167C231.979 137.252 231.979 101.73 223.388 67.815C220.985 58.3254 215.995 49.6892 208.973 42.868C201.952 36.0469 193.175 31.3086 183.62 29.1808L179.962 28.3606ZM85.9558 66.93C83.9501 66.6363 81.9044 67.0402 80.1607 68.074H80.0096C75.9627 70.4481 72.3152 73.4374 69.2072 76.9555C66.6172 79.9448 65.2142 82.9665 64.8473 85.8802C64.6315 87.6069 64.7826 89.3551 65.2898 91.0062L65.484 91.1142C68.3978 99.672 72.1964 107.906 76.8369 115.654C82.823 126.536 90.1859 136.601 98.7439 145.601L99.0029 145.968L99.413 146.27L99.6612 146.562L99.9634 146.821C108.996 155.404 119.084 162.802 129.986 168.836C142.45 175.624 150.015 178.829 154.558 180.167V180.232C155.886 180.642 157.094 180.825 158.314 180.825C162.185 180.548 165.85 178.974 168.717 176.358C172.224 173.25 175.192 169.591 177.502 165.523V165.447C179.671 161.346 178.937 157.483 175.807 154.861C169.526 149.361 162.728 144.482 155.508 140.292C150.673 137.669 145.763 139.256 143.778 141.911L139.536 147.263C137.357 149.918 133.407 149.551 133.407 149.551L133.299 149.616C103.827 142.094 95.9597 112.255 95.9597 112.255C95.9597 112.255 95.5928 108.197 98.3231 106.125L103.633 101.852C106.179 99.7799 107.949 94.8805 105.219 90.0458C101.038 82.8308 96.1699 76.0364 90.6826 69.7575C89.4823 68.2831 87.8012 67.2783 85.9342 66.9193M135.749 53.9585C134.318 53.9585 132.945 54.5269 131.933 55.5389C130.921 56.5508 130.353 57.9232 130.353 59.3543C130.353 60.7854 130.921 62.1578 131.933 63.1697C132.945 64.1816 134.318 64.7501 135.749 64.7501C149.4 64.7501 160.731 69.2071 169.699 77.7541C174.307 82.4269 177.901 87.963 180.253 94.0279C182.617 100.104 183.696 106.589 183.415 113.086C183.386 113.795 183.496 114.502 183.739 115.168C183.983 115.834 184.356 116.446 184.836 116.968C185.805 118.022 187.154 118.648 188.585 118.708C190.016 118.769 191.412 118.258 192.466 117.288C193.521 116.319 194.147 114.97 194.207 113.539C194.529 105.549 193.203 97.5773 190.311 90.1213C187.406 82.6274 182.983 75.8155 177.318 70.1136L177.21 70.0057C166.084 59.3759 152.001 53.9585 135.749 53.9585ZM135.382 71.7C133.951 71.7 132.578 72.2684 131.566 73.2804C130.554 74.2923 129.986 75.6647 129.986 77.0958C129.986 78.5269 130.554 79.8993 131.566 80.9112C132.578 81.9231 133.951 82.4916 135.382 82.4916H135.565C145.407 83.1931 152.573 86.4738 157.591 91.8588C162.739 97.4057 165.404 104.302 165.199 112.827C165.166 114.258 165.703 115.644 166.692 116.679C167.68 117.714 169.04 118.314 170.471 118.347C171.902 118.38 173.287 117.843 174.323 116.854C175.358 115.866 175.958 114.506 175.991 113.075C176.25 101.884 172.645 92.2257 165.501 84.5205V84.4989C158.195 76.6641 148.17 72.5201 136.105 71.7108L135.921 71.6892L135.382 71.7ZM135.177 89.776C134.455 89.7123 133.727 89.7947 133.037 90.0184C132.348 90.2421 131.71 90.6024 131.163 91.0779C130.616 91.5534 130.17 92.1342 129.853 92.7858C129.535 93.4373 129.352 94.1462 129.314 94.8702C129.276 95.5941 129.385 96.3182 129.633 96.9993C129.881 97.6804 130.264 98.3044 130.759 98.8342C131.254 99.3639 131.85 99.7885 132.513 100.083C133.176 100.377 133.891 100.534 134.615 100.546C139.126 100.784 142.008 102.143 143.821 103.967C145.645 105.802 147.004 108.748 147.253 113.356C147.266 114.08 147.425 114.794 147.72 115.455C148.016 116.117 148.441 116.712 148.971 117.205C149.501 117.699 150.125 118.08 150.806 118.327C151.487 118.575 152.21 118.682 152.934 118.644C153.657 118.605 154.365 118.422 155.016 118.104C155.666 117.786 156.246 117.34 156.721 116.794C157.196 116.247 157.556 115.61 157.78 114.921C158.003 114.232 158.086 113.505 158.023 112.784C157.677 106.309 155.648 100.589 151.494 96.3805C147.317 92.1717 141.63 90.1213 135.177 89.776Z" fill="#8400FF"/>
</svg>
