<svg width="249" height="249" viewBox="0 0 249 249" fill="none" xmlns="http://www.w3.org/2000/svg">
<path d="M124.51 20.75C181.812 20.75 228.26 67.1989 228.26 124.5C228.26 181.801 181.812 228.25 124.51 228.25C106.175 228.282 88.1625 223.429 72.3242 214.192L20.8019 228.25L34.8289 176.707C25.5844 160.864 20.7283 142.843 20.7604 124.5C20.7604 67.1989 67.2093 20.75 124.51 20.75ZM89.1524 75.7375L87.0774 75.8205C85.7358 75.9129 84.425 76.2653 83.2179 76.858C82.093 77.4962 81.0657 78.2928 80.1677 79.2235C78.9227 80.3959 78.2172 81.4126 77.4598 82.3983C73.6223 87.3876 71.5561 93.5131 71.5875 99.8075C71.6083 104.891 72.9363 109.84 75.0113 114.467C79.2547 123.826 86.237 133.734 95.45 142.916C97.6703 145.125 99.849 147.346 102.194 149.41C113.642 159.489 127.283 166.757 142.034 170.638L147.927 171.54C149.846 171.644 151.766 171.499 153.695 171.405C156.716 171.246 159.666 170.428 162.338 169.009C163.695 168.307 165.021 167.545 166.311 166.726C166.311 166.726 166.751 166.429 167.608 165.792C169.009 164.755 169.87 164.018 171.032 162.805C171.903 161.905 172.63 160.861 173.211 159.671C174.02 157.98 174.829 154.753 175.161 152.066C175.41 150.012 175.338 148.892 175.306 148.197C175.265 147.086 174.342 145.935 173.335 145.447L167.297 142.739C167.297 142.739 158.271 138.807 152.751 136.296C152.173 136.045 151.555 135.901 150.925 135.871C150.215 135.797 149.498 135.876 148.821 136.103C148.144 136.331 147.524 136.701 147.003 137.189C146.952 137.168 146.256 137.759 138.755 146.848C138.325 147.426 137.732 147.864 137.052 148.104C136.372 148.344 135.636 148.376 134.937 148.197C134.261 148.016 133.599 147.787 132.956 147.512C131.669 146.972 131.223 146.765 130.341 146.391C124.385 143.797 118.871 140.285 114.001 135.985C112.693 134.844 111.479 133.599 110.234 132.395C106.153 128.486 102.596 124.064 99.6519 119.24L99.0398 118.254C98.6068 117.588 98.2517 116.875 97.9815 116.127C97.5873 114.602 98.6144 113.378 98.6144 113.378C98.6144 113.378 101.136 110.618 102.308 109.124C103.449 107.672 104.414 106.261 105.037 105.254C106.261 103.283 106.645 101.26 106.001 99.6934C103.096 92.5969 100.095 85.5384 96.9959 78.518C96.3838 77.1277 94.5682 76.1317 92.9185 75.9346C92.3583 75.8655 91.798 75.8101 91.2378 75.7686C89.8447 75.6887 88.4479 75.7026 87.0567 75.8101L89.1524 75.7375Z" fill="#00E404"/>
</svg>
